<?xml version="1.0" encoding="UTF-8"?>
<svg id="Layer_1" data-name="Layer 1" xmlns="http://www.w3.org/2000/svg" version="1.1" viewBox="0 0 125 44">
  <defs>
    <style>
      .cls-1 {
        fill: #00a3c7;
        fill-rule: evenodd;
        stroke-width: 0px;
      }
    </style>
  </defs>
  <path class="cls-1" d="M12.7908732,6.0028359h-5.413263V.6585536c0-.1746618-.0702777-.3421669-.1953657-.4656689-.125098-.123502-.2947588-.1928846-.4716747-.1928846-.1769063,0-.3465766.0693826-.4716747.1928846-.1250885.123502-.1953657.2910072-.1953657.465669v5.3442828H.6450517c-.1730743.005825-.3370864.0778074-.4574345.2007365-.120347.1229386-.1876171.2872291-.1876171.4581967s.0672702.3352491.1876171.4581871c.1203481.1229386.2843602.1949109.4574346.200746h5.3984774v5.3281521c0,.1746523.0702772.3422008.1953657.4657078.125098.123507.2947684.1928375.4716747.1928375.1769158,0,.3465766-.0693295.4716747-.1928375.125088-.123507.1953657-.2910556.1953657-.4657078v-5.3281521h5.4132635c.1730426-.0058351.3370861-.077808.4573727-.200746.1203812-.1229386.1876282-.2872195.1876282-.4581871s-.067247-.3352586-.1876282-.4581967c-.1202866-.122929-.2843301-.1949115-.4573727-.200737ZM109.2083843,23.1634126l-.000952,1.041851h1.1943454v-1.041851h-1.1933935ZM86.4746989,27.3600858c0,.3303606.0669612.6574085.1970077.9618172s.3205094.5800266.5600415.8106551c.2396256.2306286.5235774.411627.8351876.5321983.3115166.1205714.6443337.1784421.9788677.1700124.3373729.0083362.6729439-.0498193.9871975-.1712449.3142621-.1213279.6007724-.3034631.8427609-.5356068s.4346443-.5096548.5665778-.8162437c.131942-.3065889.2005096-.6360974.2018356-.9693012v-.0183765c-.0140161-.6692487-.2937096-1.3062917-.7788341-1.7738939-.485218-.4675066-1.13704-.7281585-1.8150923-.7257913-.6779588.0024649-1.3278854.2677577-1.8096949.7387683-.4817161.4710127-.7567687,1.1100468-.7658549,1.7792934v.0177135ZM90.532898,27.3600858c.0110837.1965296-.018844.3933461-.0880831.577942-.0691371.1846915-.1760728.353378-.3140666.4955431-.1380873.1420694-.3042153.254685-.4881589.3307389-.1839351.0761495-.3817928.1140351-.5812569.1113831-.1996511-.0022716-.3968459-.0441351-.5799309-.1229365-.1829831-.0788014-.3481677-.1931233-.4857875-.3360449-.1375178-.1429237-.2446489-.3117036-.31501-.4962039-.0703781-.1845024-.1025752-.3811298-.0946195-.5781332v-.0183765c-.0120272-.196247.016855-.3927787.0848617-.5774703.0681002-.1847872.1737948-.3537563.3106582-.4965843.1367698-.1428302.3018524-.2562957.4849375-.333582.1830766-.0772863.3802798-.1166891.57937-.1156458.2012661.001326.4001693.0427156.5848608.1216126s.3513891.1936886.4902413.3375599c.1387588.1438693.2467314.3138817.3175685.4998992.0707521.185924.1028642.3841578.0944325.582585v.0177114l-.000017.0000021ZM82.4022967,25.0772957c-.2892642.1571289-.5331482.3844426-.7086515.6605321v-.7980585h-1.1112772v6.2366205h1.1112772v-2.1933831c.184496.2634929.4317969.4781164.7201092.6252071.2882103.1469951.6086262.2219142.933122.2181275.3161575-.0078623.6273852-.0794665.914465-.2104565s.5440279-.3186161.7549582-.5513292c.2109303-.2326175.3713805-.5053922.4715843-.8015625.1002038-.2961682.1379003-.6094825.110905-.9206167v-.0183765c.0269953-.3111342-.0107012-.6243529-.110905-.9205232s-.260654-.5689471-.4715843-.8016581c-.2109303-.2326175-.4678784-.4202436-.7549582-.5512336s-.5983074-.2026877-.914465-.2105478c-.3301736-.0014216-.6552304.080223-.9445797.2372584ZM84.3955442,26.7573287c.0618443.1823222.0855247.3750673.0695111.5666713v.0183765c.01847.1920778-.0035019.385862-.0644028.5691341-.0609944.1833656-.1595917.3522412-.2897317.4962061-.1301315.1438693-.2889752.2597998-.466561.3403054-.1774837.0805077-.3700376.1239819-.5654388.1276751-.1958602-.0058712-.3886011-.0505779-.5665778-.1314617-.1780617-.080886-.3378404-.196247-.4698759-.3392641-.1319335-.1430172-.2334717-.3108494-.2984355-.4933629-.0650743-.1825156-.092163-.3761085-.0799404-.5692297v-.0183765c-.0122227-.1931212.0148746-.3866206.0799404-.5692297.0649723-.1825135.166502-.3502501.2984355-.4932694.1320355-.1431128.2918142-.2584738.4698759-.3393598.1779682-.0807903.3707091-.1254949.5665778-.1314638.1946448.0060625.3859576.0510518.5624129.1324116.1764553.0812642.3343385.1971947.4640025.3405901s.2283549.3114189.2902077.4936476ZM93.3401176,29.7658166l-1.5671284-4.8260472h1.1384594l.9729944,3.2820233,1.0742437-3.2966089h.9547199l1.0750002,3.3003977.9907079-3.2820233h1.1204654l-1.5883524,4.8222585h-1.0001767l-1.0873078-3.2720786-1.0920507,3.2720786h-.9915749ZM99.5854525,27.350804c-.0132596.327424.0426179.6539023.1619547.9593565.1202888.3053564.3030849.5831524.5360806.815959.2339477.2329022.5133522.415794.8211715.5375022.3078192.1216105.6383669.1793856.9698665.1696299.3779084.0117467.7539298-.0631724,1.0986805-.2187884.3438073-.1556159.6468921-.3877575.8846223-.6781501l-.6525785-.5712187c-.1657456.1809963-.3684396.325435-.594797.4238454-.2263659.0984061-.4707259.1486036-.7179247.1473733-.3466547.012501-.6847841-.1064575-.9442992-.3325408-.260467-.2260812-.4224217-.5419518-.4536838-.8826376h3.5650253l.0037909-.0415788v-.0001891l.0037824-.0510496c.0056778-.0731193.0104207-.1434931.0104207-.2138628,0-1.3776133-.7804491-2.5744152-2.3223842-2.5744152-.3229658.0047344-.6421578.0734975-.9376608.2024029-.2955116.1289054-.5616564.3152077-.783288.5479208-.2206796.2326175-.3921115.5068116-.503875.8062969-.1108115.2993896-.1600677.6179122-.1449126.9365304,0,0,0,.0176179.0000085.0176137ZM102.8237211,26.1174425c.2301568.2359324.3570669.5521813.352341.8799856h-2.4881297c.0085168-.3282782.1430172-.6411187.3769564-.8749665.2339477-.2338478.5483968-.3713742.8808399-.3846338.3315081.0071993.6478441.1436823.8779924.3796147ZM108.1617904,26.009183c-.9736574,0-1.6527551.6255832-1.6527551,1.8952218v1.8215372h-1.1119402v-4.7861727h1.1119402v1.0785998c.1164979-.3536606.3476067-.65968.6582563-.8708909.3097147-.2113065.6819367-.3160598,1.0579581-.2981592v1.159864h-.0634593ZM111.8196332,29.725942l-.0037824-4.7861727h1.1109882v.73441c.1572288-.2564849.3798038-.4682652.6449967-.6147864.2642494-.1464277.5635519-.2225772.8675802-.2208729.240569-.0108925.4811466.0301189.7046736.120191.222575.0899765.4233651.2268398.5881672.4011127.1638586.1742729.2879298.3816971.3627533.6079674.0748235.2262724.0985039.465898.0700891.7023043v3.0542358h-1.1043669v-2.7177171c0-.7435962-.3769564-1.1691479-1.0380601-1.1691479-.1534379-.0031258-.3059323.0264258-.448006.0864746-.1411217.0601423-.2680403.1494579-.3712785.2619778s-.1818526.2455924-.2282614.3903159c-.0473607.1448191-.0625158.2977789-.0445133.448754v2.7009534h-1.1109967.000017ZM117.9116237,29.7987766l-.4129529.8248625c.6563694.3825492,1.4055563.5805982,2.1670423.5727359.3589709.0276583.7198287-.0150595,1.0617405-.1255905.3419203-.1105332.6582648-.2866994.9300875-.5184648.2197446-.2447403.3873941-.530492.4934713-.8403002.1060772-.3099038.147743-.637519.1231192-.9636191v-3.810146h-1.1119402v.7160378c-.1979512-.2578108-.4555708-.4658959-.7510823-.6074936-.2945596-.1416933-.6194294-.2130128-.9471381-.2082763-.2973985-.0026519-.5910146.0543645-.8647413.167454-.2737182.1130873-.5209255.2798784-.727402.4904283-.2064765.2104544-.3665442.4601203-.4726213.7338427-.1051337.2738159-.1524859.5658192-.1401697.8583898v.0176179c-.0123162.2919077.035988.5832458.1411217.8561162.1060772.2729659.2670968.5217797.4726213.7312864.2064765.2095088.4536838.3754455.727402.4874917.2727747.1121417.5663993.168117.8628458.1645173.336234.0046409.6677336-.0733084.9660841-.2268398.298342-.1534379.5531312-.3777192.7416051-.6524829v.3709938c.0227369.2022138-.0018954.4066057-.0719846.5978315-.0700891.1913214-.1837481.3642705-.3314996.505866-.1477515.1415998-.3258133.2481508-.521869.3114189-.1951123.0632681-.4034842.0816446-.6071217.0537972-.6127911-.0012325-1.2123395-.1774944-1.7266182-.5074746ZM121.1802025,27.0970667c-.0028474.1795768-.0416829.3566929-.1155544.520832-.07388.1642326-.1799572.3120819-.3125536.4347357-.1325964.1227495-.2898252.2177472-.4603051.2795001-.1704884.0616595-.352341.0888439-.5341852.0797512-.1790052.007671-.3580189-.0206481-.5256514-.0834423-.1676495-.0627963-.3201354-.1585505-.4489495-.2815847-.1288055-.1230342-.2311003-.2706922-.3002374-.4339792-.0691456-.163287-.1041817-.3387924-.1022948-.5158108v-.0176179c-.0037824-.1773987.0303102-.3535671.0994473-.5175171.0682022-.16395.1704884-.3121754.299294-.4354922.1297575-.1234124.2831954-.2191687.4517799-.2813956.1676495-.0622268.3476067-.0896003.5266119-.0804121.1818526-.0090948.3637052.0180896.5341852.0797491.1704884.061753.3277087.1568463.4603051.2795001.1325964.1227495.2386736.2705966.3125536.4347357.0738715.1641391.112707.3413487.1155544.520832,0,0,0,.0176179,0,.0176158ZM82.4136523,39.0358357c-.2883038-.1470928-.5356046-.3618055-.7200072-.6253962v2.1941396h-1.1112772v-6.2373749h1.1112772v.7980563c.1755968-.2758983.4194807-.5031206.7088385-.6600604.2892557-.1569398.6143125-.2384908.9443927-.236878.3161575.0078623.6273852.0794644.914465.2104522.2870798.13099.5440279.3186161.7549582.5512357.2109303.2327131.3713805.5054857.4715843.8016581.1002038.2961703.1379003.6094804.110905.920521v.0176158c.0269953.3111384-.0107012.6244485-.110905.9206188s-.260654.568945-.4715843.8016602c-.2109303.2326133-.4678784.4202457-.7549582.5512357-.2870798.1309857-.5983074.2025921-.914465.2104544-.3244958.0039779-.6449967-.0709391-.933224-.2179384ZM84.4006525,37.3389455c.0609009-.1832721.0828728-.3770584.0644028-.5691362v-.0176158c.0160051-.1916019-.0076668-.3843469-.0695111-.5666713-.0618443-.1822309-.1605437-.3502501-.2902077-.4936498-.129664-.1433954-.2875473-.2593259-.4640025-.3405901-.1764553-.0813577-.3677681-.1263491-.5624129-.1323138-.1958602.0058712-.3886011.0505758-.5665778.1314596-.1780617.0807903-.3378404.1962491-.4698759.3392641-.1319335.1430172-.2334717.3107559-.2984355.4932715-.0650743.1826048-.092163.3761064-.0799404.5692297v.0176158c-.0122227.1931191.0148746.3867184.0799404.5692297.0649723.1825114.166502.3503478.2984355.493365.1320355.1430172.2918142.2583803.4698759.3392641.1779682.0808838.3707091.1255884.5665778.1314617.1954013-.0036932.3879551-.0471695.5654388-.1276751.1775857-.0805056.336421-.1963405.466561-.3403054s.2287374-.3128384.2897317-.4962039ZM86.1073982,36.788275c0,.3303606.0670547.6574064.1970077.9618172.130038.3044108.3205094.5800287.5600415.8107507.2396256.2306286.5235774.4115292.8351876.5320985.3115166.120667.6443422.17844.9788677.1700124.3374664.0084275.6731309-.0498214.987393-.1712449.3142536-.1214235.6008659-.3036501.8428544-.5357959.241997-.232235.4346443-.5098461.5664843-.8165263.1319335-.306778.2005096-.6363779.2016401-.969586v-.0176158c-.0139226-.6691488-.2935141-1.3062917-.7786386-1.7738939-.4851245-.4676043-1.136853-.7283497-1.8149053-.7260781-.6779673.0023693-1.3278854.2674729-1.8097034.7384836-.4819031.4709171-.7570407,1.1098535-.7662289,1.7791043v.0184743ZM90.1655973,36.788275c.0109902.1965317-.0191245.3933439-.0883636.577942-.0693241.184598-.1763533.353191-.3143471.4952562-.1380958.1420737-.3043173.2545937-.4883459.3306496-.1839351.0759625-.3817928.1137482-.5812569.1110028-.1996596-.0022737-.3968459-.0441351-.5799309-.1229365-.1829916-.0788014-.3481762-.1931191-.4857875-.336047-.1375263-.1429194-.2446489-.3116994-.3150185-.4962039s-.1025752-.3810363-.0946195-.5781332v-.0176158c-.0120272-.196247.016855-.3928722.0849552-.5776572.0681002-.1847893.1738968-.3538498.3107602-.4966799.1369568-.1427324.3021414-.2562957.4853115-.3334843.1831786-.0772863.3804668-.1165935.5795569-.1154588.2012661.0012325.4001693.0425265.5848608.12133.1846915.0788014.3513891.1935951.4901478.3373708.1387588.1438671.2468249.3137861.317662.4997101.0707606.185924.1028642.3840622.0944325.5824894v.01847l-.000017-.0000042ZM91.6433252,38.5285438l.4961997-.7436918c.4528338.3574494,1.0088889.5638281,1.5880719.5895952.4775427,0,.7532583-.1993749.7532583-.5167606v-.0183765c0-.346081-.447241-.4801054-.969195-.6364757l-.1141349-.0342881c-.7159358-.1993706-1.5150333-.4891959-1.5150333-1.4052673v-.0177093c.0084233-.2103587.0607989-.4167438.1538119-.6061676.093098-.189428.224751-.3578276.3869096-.4945975.1620482-.1367677.3511001-.2390561.5551116-.3002438.2040115-.061277.4186393-.0801273.6304111-.0555949.633828.0119337,1.2514554.2003184,1.7818497.5435604l-.4423111.7774125c-.4080316-.266147-.8794204-.422615-1.3674773-.4538708-.4317119,0-.6794803.2000358-.6794803.4714887v.0206459c0,.3338689.4661785.4816205.9974312.6500222l.0944325.0300254c.706943.2169907,1.5063211.5366501,1.5063211,1.396079v.0176158c0,1.0066195-.7899093,1.5049059-1.7998437,1.5049059-.7466285-.0104165-1.4691006-.2628257-2.0563328-.7183072ZM96.6483818,37.7848563l-.4963017.7436918c.5862803.4550055,1.3070439.7073255,2.0533919.7183072,1.0096539,0,1.7986197-.4982864,1.7986197-1.5049059v-.0176158c0-.8594332-.7984431-1.1790926-1.5059556-1.396079l-.094713-.0303102c-.5313377-.1683082-.9973377-.3161575-.9973377-.6497374v-.0176179c0-.2713531.2472074-.4714845.6790978-.4714845.4887199.0311623.9603977.1876282,1.3686163.4538708l.4413677-.7804427c-.5304028-.3431485-1.1479367-.5315332-1.7815692-.5435604-.2121543-.0247195-.4262126-.0058755-.6307936.0553123-.203629.0611835-.3930635.1634761-.5550181.3002396-.1619547.1367677-.2936076.3052629-.3873771.4947845-.092826.189428-.1449126.3959066-.1534379.6062654v.0177093c0,.9160714.7984431,1.2058966,1.5154158,1.4052673l.11082.0331491c.5266119.1569398.9764963.2907687.9764963.6376104v.0183765c0,.3173857-.2756136.5167606-.7539298.5167606-.5786985-.0256651-1.1346686-.2320523-1.5873919-.5895909ZM104.5172072,38.4081658c.1837481.2639689.4309469.4792511.7188767.6267222.2879213.1474668.6090087.2226728.9329265.2188819.316353-.0079558.6279546-.0796514.9149409-.2106456.2869863-.1310792.5436539-.3187117.7548647-.5513292.2102674-.2326133.371287-.5053922.4716778-.801469.0994558-.2961703.1373393-.6093869.11082-.9205253v-.0176158c.0265193-.3110407-.0104207-.6243507-.11082-.920521-.1003908-.2961724-.260467-.5689471-.4716778-.8016581-.2112108-.2326196-.4678784-.4202436-.7548647-.5512357-.2869863-.1309879-.5985879-.2025899-.9149409-.2104522-.3296042-.0015172-.6544654.0801273-.9433472.2370671-.2898252.156944-.5332417.3840664-.708456.6598713v-2.6287818h-1.1119402v6.6153788h1.1119402s0-.7436918,0-.7436875ZM107.2885323,36.769805c.0189375.1921756-.0028474.3859619-.0634593.5693275-.0615638.1833656-.1600677.352239-.2898252.4962039-.1307095.1439649-.2888732.2598975-.4669435.3404031-.1771097.0804121-.3703266.1238842-.5654388.1273903-.1960557-.0058691-.3883206-.0505736-.5663908-.1314617-.1780617-.0808838-.3381209-.1962512-.4697824-.3392641-.131653-.1431107-.2329872-.3108537-.298342-.493365-.0644028-.1825114-.091874-.3761107-.0795579-.5692297v-.0176158c-.0123162-.1930256.0151551-.3866206.0795579-.569132.0653547-.1825114.166689-.3502501.298342-.493365.1316615-.143015.2917207-.2583803.4697824-.3392641.1780617-.080886.3703266-.1255905.5663908-.1314596.1951123.0058712.3864336.050767.5625999.1321247.1761663.0812642.3343385.1970991.464096.3405922.1297575.1433954.2282614.3114189.2898252.493739.0625158.1823244.0861962.3751629.0691456.566769,0,0,0,.0176158,0,.0176073ZM116.9389183,37.830126c-.0303102.1888607-.0151551.3820775.0445218.5641171.0587164.1820439.1600677.3479807.2955031.4844615.1354354.1365786.3021414.2399103.4849375.3018524.1837481.0618486.3788603.0806968.5701732.0548405.3504456.0100382.6961483-.0745387,1.0011201-.2445512v-.8977927c-.2131063.1081638-.448941.1642326-.6885665.1632849-.0814533.0115554-.1657541.0039779-.243408-.0220697-.0786144-.026141-.1496555-.0699914-.2083719-.1282403-.0577814-.0581554-.1013428-.1289075-.1259751-.2066677-.0255758-.0777602-.0321971-.1602547-.0198895-.2409515v-2.3482405h1.304205v-.9429689h-1.304205v-1.3140605h-1.1100532v1.3140605h-.6156385v.9429689h.6156385s0,2.5199529.0000085,2.5199571ZM122.5866938,37.9213371l1.2568613-3.5541329h1.156445l-1.9283688,4.9226556c-.3873941.9789612-.8164286,1.341621-1.5978296,1.341621-.4015802.0042584-.7974826-.0957584-1.1479197-.2898252l.3769564-.8156764c.1988947.112996.4233736.1752228.65257.1809049.3106667,0,.504827-.1357244.688575-.5435647l-2.0192908-4.7961153h1.1933935l1.3686078,3.5541329ZM109.2547845,24.9397693h1.1100447v4.7861727h-1.1100447v-4.7861727ZM102.175877,32.5908475h-1.1943454v1.0427031h1.1943454v-1.0427031ZM102.1379935,34.3672042h-1.1100447v4.7869313h1.1100447v-4.7869313ZM110.4102945,32.5908475h-1.1933935v1.0427031h1.1933935v-1.0427031ZM110.3743065,34.3672042h-1.1109882v4.7869313h1.1109882v-4.7869313ZM111.7050308,32.5364766h1.1109967v6.6176547h-1.1109967v-6.6176547ZM115.4774845,32.5908475h-1.1933935v1.0427031h1.1933935v-1.0427031ZM115.4405445,34.3672042h-1.1109882v4.7869313h1.1109882v-4.7869313ZM55.7728428,10.823532h8.7034392c7.1534548,0,11.9741939,3.4015513,11.9741939,9.811496,0,6.4666796-5.123637,10.2907461-11.8600547,10.2907461h-3.3228456v8.5404391h-5.4947285s0-28.6426822-.0000042-28.6426812ZM61.2675713,26.1096758h3.2677161c4.6110455,0,6.7286617-2.283077,6.724773-5.3512354,0-3.3931217-2.1044415-5.1564089-6.9235742-5.1564089h-3.0689149v10.5076443ZM43.5696353,35.1292704c2.3009775-.0089035,4.5286445-.8002386,6.3077487-2.2409287l2.8910444,3.5894622c-2.6610788,2.234301-6.0425473,3.4576222-9.5358771,3.4498577-3.9535414-.02813-7.7354639-1.5983949-10.521092-4.3682963-2.7856281-2.7699992-4.3488785-6.5150752-4.3488785-10.4183277,0-3.9033439,1.5632504-7.6483274,4.3488785-10.4183277,2.7856281-2.7699992,6.5675506-4.3402587,10.521092-4.3683898,3.4933298-.0078612,6.8747983,1.2154621,9.5358771,3.4499501l-2.8910444,3.5977994c-1.2577027-.9955379-2.738839-1.6788973-4.3191378-1.9929681-1.5803966-.3140708-3.2139253-.2494768-4.7639139.188101-1.5498994.4376734-2.970887,1.2357319-4.1441063,2.3273077-1.1731258,1.0914812-2.064193,2.4447511-2.5984738,3.9463442-.5342829,1.5014975-.6962418,3.1076547-.4723366,4.6837866.2239031,1.5760362.8272276,3.0762098,1.7594018,4.3746392.9321742,1.2985272,2.1659161,2.3575222,3.5979874,3.0882391s3.0207084,1.1119402,4.6328304,1.111751ZM16.4374486,34.4913731h12.3787161v4.9747465H10.9427222V10.8226788h5.4947254s0,23.6686943.0000011,23.6686943Z"/>
</svg>