<?xml version="1.0" encoding="UTF-8" standalone="no"?>
<svg
   id="Layer_1"
   data-name="Layer 1"
   version="1.1"
   viewBox="0 0 13.379808 13.379807"
   sodipodi:docname="cross.svg"
   width="13.379808"
   height="13.379807"
   inkscape:version="1.4 (e7c3feb1, 2024-10-09)"
   xmlns:inkscape="http://www.inkscape.org/namespaces/inkscape"
   xmlns:sodipodi="http://sodipodi.sourceforge.net/DTD/sodipodi-0.dtd"
   xmlns="http://www.w3.org/2000/svg"
   xmlns:svg="http://www.w3.org/2000/svg">
  <sodipodi:namedview
     id="namedview1"
     pagecolor="#ffffff"
     bordercolor="#000000"
     borderopacity="0.25"
     inkscape:showpageshadow="2"
     inkscape:pageopacity="0.0"
     inkscape:pagecheckerboard="0"
     inkscape:deskcolor="#d1d1d1"
     inkscape:export-bgcolor="#ffffff00"
     inkscape:zoom="18.909091"
     inkscape:cx="20.519231"
     inkscape:cy="13.644231"
     inkscape:window-width="1920"
     inkscape:window-height="1027"
     inkscape:window-x="3432"
     inkscape:window-y="25"
     inkscape:window-maximized="0"
     inkscape:current-layer="Layer_1" />
  <defs
     id="defs1">
    <style
       id="style1">
      .cls-1 {
        fill: #00a3c7;
        fill-rule: evenodd;
        stroke-width: 0px;
      }
    </style>
    <clipPath
       clipPathUnits="userSpaceOnUse"
       id="clipPath1">
      <rect
         style="fill:none"
         id="rect2"
         width="13.379808"
         height="13.379807"
         x="4.3360246e-10"
         y="8.6720492e-10" />
    </clipPath>
  </defs>
  <path
     id="path1"
     clip-path="url(#clipPath1)"
     class="cls-1"
     d="M 6.7109375,0 C 6.5340312,0 6.3633793,0.06985737 6.2382812,0.19335938 6.1131927,0.31686138 6.0429688,0.48354133 6.0429688,0.65820312 V 6.0019531 H 0.64453125 C 0.47145695,6.0077781 0.3078481,6.0801959 0.1875,6.203125 0.067153,6.3260636 0,6.4911418 0,6.6621094 0,6.833077 0.0671531,6.9962026 0.1875,7.1191406 0.3078481,7.2420792 0.47145685,7.3144774 0.64453125,7.3203125 H 6.0429688 v 5.3281255 c 0,0.174652 0.070224,0.343289 0.1953124,0.466796 0.1250981,0.123507 0.29575,0.191407 0.4726563,0.191407 0.1769158,0 0.345605,-0.0679 0.4707031,-0.191407 0.125088,-0.123507 0.1953125,-0.292147 0.1953125,-0.466796 V 7.3203125 h 5.4140629 c 0.173042,-0.00584 0.336744,-0.078234 0.457031,-0.2011719 0.120381,-0.1229386 0.1875,-0.2860636 0.1875,-0.4570312 0,-0.1709676 -0.06712,-0.3360463 -0.1875,-0.4589844 C 13.12776,6.080196 12.964059,6.0077787 12.791016,6.0019531 H 7.3769531 V 0.65820312 c 0,-0.17466179 -0.070225,-0.34134175 -0.1953125,-0.46484374 C 7.0565426,0.06985737 6.8878534,0 6.7109375,0 Z M 43.232422,10.353516 c -3.953542,0.02813 -7.735856,1.599141 -10.521484,4.36914 -2.785631,2.770001 -4.347657,6.514625 -4.347657,10.417969 0,3.903253 1.562028,7.64797 4.347657,10.417969 2.785628,2.769901 6.567942,4.34101 10.521484,4.36914 3.49333,0.0078 6.874077,-1.214917 9.535156,-3.449218 l -2.890625,-3.589844 c -1.779104,1.44069 -4.005663,2.231331 -6.306641,2.240234 -1.612121,1.89e-4 -3.200741,-0.380611 -4.632812,-1.111328 -1.432071,-0.730717 -2.667435,-1.789364 -3.599609,-3.08789 -0.932175,-1.29843 -1.53391,-2.798964 -1.757813,-4.375 -0.223905,-1.576133 -0.06358,-3.182097 0.470703,-4.683594 0.534281,-1.501593 1.426484,-2.855785 2.59961,-3.947266 1.173219,-1.091576 2.594631,-1.888498 4.144531,-2.326172 1.549988,-0.437578 3.183275,-0.503524 4.763672,-0.189453 1.580299,0.314071 3.060656,0.998603 4.318359,1.994141 l 2.890625,-3.597656 C 50.106499,11.5702 46.725752,10.345654 43.232422,10.353516 Z m -29.720703,0.46875 c 0.04908,0.08778 0.08515,0.181884 0.07617,0.285156 -0.0033,0.0707 -0.0078,0.140567 -0.01563,0.210937 -0.0081,0.06568 -0.01718,0.132656 -0.03125,0.197266 0.002,0.08586 0.0036,0.170319 0.01172,0.255859 0.009,0.08096 0.02697,0.161715 0.04883,0.240235 0.02997,0.12585 0.04832,0.253013 0.04102,0.382812 -0.0011,0.101518 -0.0033,0.203254 -0.0078,0.304688 -0.0052,0.0947 -0.01097,0.19105 -0.04297,0.28125 -9.8e-4,0.0027 -9.06e-4,0.0031 -0.002,0.0059 8.8e-5,6.37e-4 -3.38e-4,0.0078 0,0.0059 -0.0022,0.04721 -0.0062,0.09457 -0.01758,0.140624 -0.04353,0.144717 -0.143103,0.229337 -0.292969,0.248047 -0.05283,10e-4 -0.105383,0.0022 -0.158203,0.0039 -0.05206,0.0019 -0.10497,0.0037 -0.15625,0.01367 -0.06435,0.0117 -0.12739,0.03474 -0.19336,0.03516 -0.04743,-3.7e-5 -0.09515,-0.0019 -0.142578,-0.002 -0.09961,-2.68e-4 -0.199218,6.13e-4 -0.298828,0 -0.115357,-9e-4 -0.230369,-0.0034 -0.345703,-0.0059 -0.07324,-0.0015 -0.18069,0.0087 -0.25,-0.002 -0.0019,-3e-4 0.0025,-0.0045 0.0039,-0.0059 -0.06225,0.01712 -0.12371,0.03111 -0.1875,0.04101 -0.0507,0.01 -0.101424,0.02228 -0.152343,0.03125 0.0043,-0.0028 -0.0081,0.0024 -0.0059,0.002 -0.08591,0.02289 -0.171224,0.03424 -0.259766,0.01172 -0.06394,-0.02164 -0.126277,-0.04847 -0.189453,-0.07226 v 26.035207 h 17.87313 V 34.492188 H 16.4375 V 10.822266 Z m 42.261719,0.002 c 2e-6,-10e-7 0,28.642578 0,28.642578 h 5.49414 v -8.541016 h 3.322266 c 6.736417,0 11.861328,-3.824336 11.861328,-10.291015 0,-6.409945 -4.821155,-9.810547 -11.97461,-9.810547 z m -43.048829,0.322265 c -0.0036,-0.0046 4.2e-5,0.0047 0.01367,0.0293 -0.0038,-0.01301 -0.0103,-0.02496 -0.01367,-0.0293 z m -1.607421,1.951172 c -0.0049,0.02022 -0.0055,0.03557 -0.0039,0.04102 0.002,-0.003 0.0056,-0.01487 0.0039,-0.04102 z m 50.15039,2.503906 h 3.06836 c 4.81913,1e-6 6.923828,1.763129 6.923828,5.15625 0.0039,3.06816 -2.113564,5.351563 -6.72461,5.351563 h -3.267578 z m 47.941402,7.5625 -0.002,1.041016 h 1.19531 v -1.041016 z m -20.158199,1.660157 c -0.677959,0.0025 -1.328737,0.26727 -1.810547,0.738281 -0.481716,0.471013 -0.756538,1.11005 -0.765625,1.779297 v 0.01758 c 0,0.330361 0.06722,0.658482 0.197266,0.962891 0.130047,0.304408 0.321015,0.57992 0.560547,0.810546 0.239625,0.230631 0.522374,0.410682 0.833984,0.53125 0.311517,0.120572 0.643982,0.178352 0.978516,0.169922 0.337373,0.0083 0.674028,-0.0485 0.988281,-0.169922 0.314262,-0.121327 0.599808,-0.304965 0.841797,-0.537109 0.241989,-0.232144 0.434473,-0.507864 0.566406,-0.814453 0.131942,-0.306589 0.201799,-0.637499 0.203125,-0.970703 v -0.01758 c -0.01402,-0.669249 -0.294172,-1.305836 -0.779297,-1.773438 -0.485218,-0.467506 -1.1364,-0.728929 -1.814453,-0.726562 z m 25.388669,0.01367 c -0.30403,-0.0017 -0.60293,0.07428 -0.86718,0.220703 -0.2652,0.146521 -0.48731,0.358749 -0.64454,0.615234 v -0.734375 h -1.11132 l 0.004,4.787109 h 1.10938 v -2.701171 c -0.018,-0.150975 -0.002,-0.3044 0.0449,-0.449219 0.0464,-0.144724 0.12528,-0.278105 0.22851,-0.390625 0.10324,-0.11252 0.22998,-0.201577 0.3711,-0.261719 0.14207,-0.06005 0.29578,-0.08906 0.44922,-0.08594 0.6611,0 1.03711,0.424372 1.03711,1.167968 v 2.71875 h 1.10547 v -3.054687 c 0.0284,-0.236406 0.005,-0.4749 -0.0703,-0.701172 -0.0748,-0.22627 -0.19942,-0.435102 -0.36328,-0.609375 -0.1648,-0.174273 -0.36531,-0.310414 -0.58789,-0.400391 -0.22353,-0.09007 -0.46451,-0.131986 -0.70508,-0.121093 z m 5.02539,0 c -0.29739,-0.0027 -0.5915,0.05488 -0.86523,0.167968 -0.27372,0.113088 -0.52204,0.279685 -0.72852,0.490235 -0.20647,0.210454 -0.36658,0.460652 -0.47265,0.734375 -0.10514,0.273816 -0.15099,0.564851 -0.13867,0.857422 v 0.01758 c -0.0123,0.291907 0.0355,0.584551 0.14062,0.857422 0.10608,0.272966 0.26713,0.520962 0.47266,0.730468 0.20647,0.209509 0.45284,0.376235 0.72656,0.488282 0.27277,0.112141 0.56683,0.167662 0.86328,0.164062 0.33623,0.0046 0.66845,-0.07303 0.9668,-0.226562 0.29834,-0.153438 0.55176,-0.37758 0.74023,-0.652344 v 0.371094 c 0.0227,0.202213 -2.5e-4,0.40643 -0.0703,0.597656 -0.0701,0.191321 -0.18428,0.364264 -0.33203,0.505859 -0.14775,0.1416 -0.32543,0.247279 -0.52149,0.310547 -0.19511,0.06327 -0.40378,0.08254 -0.60742,0.05469 -0.61279,-0.0012 -1.21228,-0.177833 -1.72656,-0.507813 l -0.41406,0.824219 c 0.65637,0.382549 1.40648,0.582081 2.16797,0.574219 0.35897,0.02766 0.71863,-0.01642 1.06054,-0.126954 0.34192,-0.110533 0.65982,-0.285812 0.93164,-0.517578 0.21975,-0.24474 0.38611,-0.530035 0.49219,-0.839843 0.10608,-0.309904 0.14767,-0.638744 0.12305,-0.964844 V 24.9375 h -1.11133 v 0.716797 c -0.19795,-0.257811 -0.45644,-0.465824 -0.75195,-0.607422 -0.29456,-0.141693 -0.61761,-0.213721 -0.94532,-0.208984 z m -36.117184,0.002 c -0.330173,-0.0014 -0.655963,0.08125 -0.945312,0.238281 -0.289264,0.157129 -0.533481,0.384067 -0.708985,0.660156 v -0.798828 h -1.111328 v 6.236328 h 1.111328 v -2.193359 c 0.184496,0.263493 0.432394,0.477909 0.720703,0.625 0.288213,0.146995 0.609098,0.222537 0.933594,0.21875 0.316158,-0.0079 0.626983,-0.07995 0.914063,-0.210938 0.28708,-0.13099 0.542976,-0.318068 0.753906,-0.550781 0.21093,-0.232617 0.372452,-0.504611 0.472656,-0.800781 0.100204,-0.296168 0.138324,-0.610741 0.111328,-0.921875 v -0.01758 c 0.027,-0.311134 -0.01112,-0.623752 -0.111328,-0.919922 -0.100204,-0.29617 -0.261726,-0.570023 -0.472656,-0.802735 -0.21093,-0.232617 -0.466826,-0.419791 -0.753906,-0.550781 -0.28708,-0.13099 -0.597905,-0.203077 -0.914063,-0.210937 z m 18.607424,0 c -0.32297,0.0047 -0.642,0.07422 -0.9375,0.203125 -0.29551,0.128905 -0.5616,0.314162 -0.7832,0.546875 -0.2207,0.232617 -0.392148,0.507155 -0.503911,0.80664 -0.110812,0.29939 -0.159687,0.618882 -0.144531,0.9375 0,0 -9e-6,0.01758 0,0.01758 -0.01326,0.327426 0.04277,0.653531 0.162109,0.958985 0.120289,0.305356 0.302163,0.5836 0.535153,0.816406 0.23395,0.232902 0.51445,0.415401 0.82227,0.537109 0.30782,0.121612 0.63725,0.179678 0.96875,0.169922 0.37791,0.01175 0.75486,-0.06313 1.09961,-0.21875 0.34381,-0.155616 0.64703,-0.389295 0.88476,-0.679687 l -0.65429,-0.570313 c -0.16575,0.180997 -0.3674,0.325419 -0.59375,0.423828 -0.22637,0.09841 -0.47155,0.147715 -0.71875,0.146485 -0.34666,0.0125 -0.68385,-0.105948 -0.94336,-0.332031 -0.26047,-0.226082 -0.42187,-0.542127 -0.45313,-0.882813 h 3.56446 l 0.004,-0.04102 0.004,-0.05078 c 0.006,-0.07312 0.01,-0.144474 0.01,-0.214844 0,-1.377613 -0.78033,-2.574218 -2.32226,-2.574218 z m 6.26953,0.0098 c -0.37602,-0.0179 -0.74693,0.08752 -1.05664,0.298829 -0.31065,0.21121 -0.54171,0.51548 -0.6582,0.86914 V 24.93958 h -1.11329 v 4.787109 h 1.11329 v -1.822265 c 0,-1.269639 0.67868,-1.894531 1.65234,-1.894531 h 0.0625 z m -13.265626,0.07617 -1.074218,3.296875 -0.972657,-3.283203 h -1.138671 l 1.566406,4.826172 h 0.992187 l 1.091797,-3.271484 1.087891,3.271484 h 1 l 1.58789,-4.822266 h -1.121093 l -0.990235,3.28125 -1.074219,-3.298828 z m 14.294926,0.01367 v 4.787109 h 1.11132 v -4.787109 z m -7.3086,0.798828 c 0.33151,0.0072 0.64876,0.142971 0.87891,0.378907 0.23016,0.235931 0.35629,0.553055 0.35156,0.880859 h -2.48828 c 0.009,-0.328278 0.14301,-0.641152 0.37695,-0.875 0.23395,-0.233848 0.54842,-0.371506 0.88086,-0.384766 z m 17.8125,0.02539 c 0.18186,-0.0091 0.36273,0.01842 0.53321,0.08008 0.17048,0.06175 0.32834,0.156643 0.46093,0.279297 0.1326,0.122749 0.23862,0.271408 0.3125,0.435547 0.0739,0.164139 0.11239,0.342001 0.11524,0.521484 v 0.01758 c -0.003,0.179577 -0.0414,0.355389 -0.11524,0.519532 -0.0739,0.164231 -0.1799,0.312893 -0.3125,0.435546 -0.13259,0.12275 -0.29045,0.217544 -0.46093,0.279297 -0.17049,0.06166 -0.35136,0.08917 -0.53321,0.08008 -0.179,0.0077 -0.35776,-0.02119 -0.52539,-0.08398 -0.16765,-0.0628 -0.3204,-0.158216 -0.44922,-0.28125 -0.1288,-0.123034 -0.23164,-0.270307 -0.30078,-0.433594 -0.0691,-0.163287 -0.10345,-0.338606 -0.10156,-0.515625 v -0.01758 c -0.004,-0.177399 0.0305,-0.353628 0.0996,-0.517578 0.0682,-0.16395 0.17002,-0.31223 0.29883,-0.435547 0.12975,-0.123412 0.28258,-0.219023 0.45117,-0.28125 0.16765,-0.06223 0.34834,-0.09122 0.52734,-0.08203 z m -36.679685,0.02734 c 0.194645,0.0061 0.386045,0.05145 0.5625,0.132812 0.176455,0.08126 0.33518,0.196448 0.464844,0.339844 0.129664,0.143395 0.229162,0.311915 0.291015,0.49414 0.06185,0.182325 0.08437,0.374803 0.06836,0.566407 v 0.01758 c 0.01847,0.192078 -0.0036,0.38704 -0.06445,0.570312 -0.061,0.183366 -0.158923,0.352129 -0.289063,0.496094 -0.130131,0.143869 -0.289211,0.259338 -0.466797,0.339844 -0.177483,0.08051 -0.371005,0.12326 -0.566406,0.126953 -0.19586,-0.0059 -0.38843,-0.04998 -0.566406,-0.130859 -0.178062,-0.08089 -0.336715,-0.196827 -0.46875,-0.339844 -0.131934,-0.143017 -0.233865,-0.309674 -0.298828,-0.492188 -0.06507,-0.182515 -0.0923,-0.377191 -0.08008,-0.570312 v -0.01758 c -0.01222,-0.193121 0.01501,-0.387704 0.08008,-0.570313 0.06497,-0.182513 0.166894,-0.349168 0.298828,-0.492187 0.132035,-0.143113 0.290688,-0.258958 0.46875,-0.339844 0.177968,-0.08079 0.370537,-0.12489 0.566406,-0.130859 z m 5.966797,0.0098 c 0.201266,0.0013 0.401246,0.0422 0.585937,0.121094 0.184692,0.0789 0.351383,0.194019 0.490235,0.337891 0.138759,0.143869 0.247522,0.313982 0.318359,0.5 0.07075,0.185924 0.102182,0.383604 0.09375,0.582031 v 0.01758 c 0.01108,0.19653 -0.01865,0.393529 -0.08789,0.578125 -0.06914,0.184691 -0.176459,0.353929 -0.314453,0.496094 -0.138087,0.142069 -0.304337,0.254024 -0.488281,0.330078 -0.183935,0.07615 -0.382567,0.11398 -0.582031,0.111328 -0.199651,-0.0023 -0.396993,-0.04425 -0.580078,-0.123047 -0.182983,-0.0788 -0.346755,-0.193016 -0.484375,-0.335937 -0.137518,-0.142924 -0.246045,-0.311594 -0.316406,-0.496094 -0.07038,-0.184503 -0.101706,-0.381122 -0.09375,-0.578125 v -0.01758 c -0.01203,-0.196247 0.01598,-0.393434 0.08398,-0.578125 0.0681,-0.184787 0.175636,-0.353266 0.3125,-0.496094 0.13677,-0.14283 0.30129,-0.256698 0.484375,-0.333984 0.183076,-0.07729 0.379035,-0.116278 0.578125,-0.115235 z m 14.359378,6.736328 v 6.615235 h 1.11328 v -0.744141 c 0.18375,0.263969 0.43082,0.479482 0.71875,0.626953 0.28792,0.147467 0.60967,0.222541 0.93359,0.21875 0.31635,-0.008 0.62708,-0.07994 0.91406,-0.210937 0.28699,-0.131079 0.5427,-0.318165 0.75391,-0.550781 0.21027,-0.232614 0.37227,-0.506658 0.47266,-0.802735 0.0994,-0.29617 0.13783,-0.608783 0.11133,-0.919922 v -0.01758 c 0.0265,-0.311041 -0.0109,-0.623751 -0.11133,-0.919922 -0.10039,-0.296172 -0.26145,-0.570023 -0.47266,-0.802734 -0.21121,-0.23262 -0.46692,-0.419789 -0.75391,-0.550781 -0.28698,-0.130988 -0.59771,-0.203076 -0.91406,-0.210938 -0.3296,-0.0015 -0.65448,0.08134 -0.94336,0.238281 -0.28982,0.156944 -0.53377,0.384352 -0.70898,0.660157 V 32.53726 Z m 8.30078,0 v 6.617188 h 1.11133 v -6.617188 z m -10.72266,0.05469 v 1.041015 h 1.19336 v -1.041015 z m 8.23438,0 v 1.041015 h 1.19336 v -1.041015 z m 5.0664,0 v 1.041015 h 1.19336 v -1.041015 z m 2.65625,0.460937 v 1.314454 h -0.61523 v 0.943359 h 0.61523 c 0,0 -10e-6,2.519527 0,2.519531 -0.0303,0.188861 -0.0147,0.382414 0.0449,0.564453 0.0587,0.182044 0.15948,0.347894 0.29492,0.484375 0.13543,0.136579 0.30158,0.238839 0.48437,0.300782 0.18375,0.06185 0.379,0.0825 0.57031,0.05664 0.35045,0.01004 0.69699,-0.07608 1.00196,-0.246094 V 38.09375 c -0.21311,0.108164 -0.44983,0.163057 -0.68946,0.162109 -0.0815,0.01156 -0.16648,0.0046 -0.24414,-0.02148 -0.0786,-0.02614 -0.14831,-0.07066 -0.20703,-0.128906 -0.0578,-0.05816 -0.10232,-0.129272 -0.12695,-0.207031 -0.0256,-0.07776 -0.0318,-0.159538 -0.0195,-0.240235 v -2.347656 h 1.30469 v -0.943359 h -1.30469 v -1.314454 z m -28.255856,1.199219 c -0.677968,0.0024 -1.328729,0.267271 -1.810547,0.738281 -0.481903,0.470917 -0.756437,1.110046 -0.765625,1.779297 v 0.01953 c 0,0.330363 0.06731,0.656527 0.197266,0.960938 0.130037,0.304411 0.321014,0.579825 0.560546,0.810547 0.239626,0.230628 0.522375,0.412634 0.833985,0.533203 0.311516,0.120667 0.64399,0.178349 0.978515,0.169922 0.337467,0.0084 0.67402,-0.05045 0.988282,-0.171875 0.314253,-0.121424 0.599811,-0.303011 0.841796,-0.535156 0.241997,-0.232235 0.43652,-0.509726 0.56836,-0.816407 0.131933,-0.306778 0.200041,-0.637495 0.201172,-0.970703 v -0.01758 c -0.01392,-0.669149 -0.294173,-1.305835 -0.779297,-1.773437 -0.485125,-0.467605 -1.136401,-0.728834 -1.814453,-0.726563 z m -5.335938,0.01563 c -0.33008,-0.0016 -0.656057,0.08134 -0.945312,0.238281 -0.289358,0.15694 -0.533388,0.384258 -0.708985,0.660157 v -0.798828 h -1.111328 v 6.238281 h 1.111328 v -2.195313 c 0.184403,0.263591 0.4324,0.477907 0.720703,0.625 0.28823,0.146999 0.609098,0.222728 0.933594,0.21875 0.316158,-0.0079 0.626983,-0.07995 0.914063,-0.210937 0.28708,-0.13099 0.542976,-0.318168 0.753906,-0.550781 0.21093,-0.232718 0.372452,-0.506565 0.472656,-0.802735 0.100204,-0.29617 0.138324,-0.608783 0.111328,-0.919922 v -0.01758 c 0.027,-0.31104 -0.01112,-0.623751 -0.111328,-0.919922 -0.100204,-0.296172 -0.261726,-0.570021 -0.472656,-0.802734 -0.21093,-0.23262 -0.466826,-0.419791 -0.753906,-0.550781 -0.28708,-0.130988 -0.597905,-0.203076 -0.914063,-0.210938 z m 10.261719,0.02148 c -0.211772,-0.02453 -0.426848,-0.0066 -0.630859,0.05469 -0.204012,0.06119 -0.39264,0.164014 -0.554688,0.300781 -0.162158,0.13677 -0.293621,0.304713 -0.386719,0.494141 -0.09301,0.189424 -0.14587,0.397063 -0.154297,0.607422 v 0.01758 c 0,0.916071 0.79969,1.204926 1.515626,1.404297 l 0.113281,0.03516 c 0.521954,0.15637 0.96875,0.290638 0.96875,0.636719 v 0.01758 c 0,0.317386 -0.274411,0.517578 -0.751953,0.517578 -0.579183,-0.02577 -1.13701,-0.232394 -1.589844,-0.589844 l -0.496094,0.744141 c 0.587233,0.455481 1.310012,0.70638 2.056641,0.716797 1.009934,0 1.800781,-0.497287 1.800781,-1.503906 v -0.01758 c 0,-0.859429 -0.798916,-1.179493 -1.505859,-1.396484 l -0.0957,-0.0293 C 93.367185,36.130588 92.900394,35.982467 92.900394,35.6486 v -0.02148 c 0,-0.271453 0.247975,-0.470703 0.679687,-0.470703 0.488057,0.03126 0.961109,0.186978 1.369141,0.453125 l 0.441406,-0.777344 c -0.530394,-0.343242 -1.147422,-0.531035 -1.78125,-0.542969 z m 4.503906,0 c -0.212154,-0.02472 -0.426278,-0.0065 -0.630859,0.05469 -0.203629,0.06118 -0.392733,0.164018 -0.554688,0.300781 -0.161954,0.136768 -0.292949,0.304619 -0.386718,0.494141 -0.09283,0.189428 -0.145772,0.397063 -0.154297,0.607422 v 0.01758 c 0,0.916071 0.798652,1.204926 1.515625,1.404297 l 0.111328,0.0332 c 0.526612,0.15694 0.976562,0.29183 0.976562,0.638672 v 0.01758 c 0,0.317386 -0.27559,0.517578 -0.753906,0.517578 -0.578698,-0.02566 -1.135167,-0.232305 -1.58789,-0.589844 l -0.496094,0.744141 c 0.58628,0.455005 1.306386,0.705815 2.052734,0.716797 1.009654,0 1.798832,-0.497287 1.798832,-1.503906 v -0.01758 c 0,-0.859433 -0.798351,-1.179498 -1.505863,-1.396484 l -0.09375,-0.0293 C 97.872962,36.130013 97.40625,35.982017 97.40625,35.648438 v -0.01758 c 0,-0.271353 0.247797,-0.472656 0.679688,-0.472656 0.488719,0.03116 0.958968,0.188836 1.367187,0.455078 l 0.441406,-0.78125 c -0.530403,-0.343148 -1.147617,-0.53094 -1.78125,-0.542969 z m 2.914059,0.07813 v 4.787109 h 1.11133 v -4.787109 z m 8.23633,0 v 4.787109 h 1.11133 v -4.787109 z m 5.06641,0 v 4.787109 h 1.11133 v -4.787109 z m 5.69531,0 2.01953,4.796874 c -0.18375,0.407841 -0.37878,0.542969 -0.68945,0.542969 -0.2292,-0.0057 -0.45344,-0.06864 -0.65235,-0.18164 l -0.37695,0.816406 c 0.35044,0.194067 0.74686,0.293321 1.14844,0.289062 0.7814,0 1.21026,-0.362833 1.59766,-1.341797 L 125,34.367188 h -1.15625 l -1.25781,3.554687 -1.36719,-3.554687 z M 83.078125,35.21875 c 0.194645,0.006 0.386045,0.05145 0.5625,0.132812 0.176455,0.08127 0.33518,0.196449 0.464844,0.339844 0.129664,0.1434 0.229171,0.31191 0.291015,0.494141 0.06185,0.182324 0.08437,0.374804 0.06836,0.566406 v 0.01758 c 0.01847,0.192078 -0.0036,0.387041 -0.06445,0.570313 -0.061,0.183365 -0.158923,0.352126 -0.289063,0.496094 -0.13014,0.143962 -0.289211,0.259338 -0.466797,0.339843 -0.177483,0.08051 -0.371005,0.12326 -0.566406,0.126953 -0.195869,-0.0059 -0.388438,-0.04998 -0.566406,-0.130859 -0.178062,-0.08088 -0.336715,-0.196827 -0.46875,-0.339844 -0.131934,-0.143017 -0.233856,-0.309676 -0.298828,-0.492187 -0.06507,-0.182512 -0.0923,-0.377194 -0.08008,-0.570313 v -0.01758 c -0.01222,-0.193123 0.015,-0.385754 0.08008,-0.568359 0.06496,-0.182516 0.166894,-0.351124 0.298828,-0.494141 0.132035,-0.143015 0.290688,-0.259053 0.46875,-0.339844 0.177976,-0.08088 0.370546,-0.124988 0.566406,-0.130859 z m 22.824215,0 c 0.19512,0.0059 0.38634,0.05145 0.5625,0.132812 0.17617,0.08127 0.33509,0.196351 0.46485,0.339844 0.12975,0.143396 0.2275,0.311821 0.28906,0.494141 0.0625,0.182324 0.0874,0.3748 0.0703,0.566406 v 0.01758 c 0.0189,0.192176 -0.004,0.386947 -0.0645,0.570313 -0.0616,0.183365 -0.15931,0.352126 -0.28906,0.496094 -0.13071,0.143962 -0.28873,0.259338 -0.4668,0.339843 -0.17711,0.08041 -0.37129,0.123447 -0.56641,0.126953 -0.19605,-0.0059 -0.38833,-0.04997 -0.5664,-0.130859 -0.17806,-0.08088 -0.33709,-0.196831 -0.46875,-0.339844 -0.13166,-0.14311 -0.23348,-0.309676 -0.29883,-0.492187 -0.0644,-0.182512 -0.0924,-0.377194 -0.0801,-0.570313 v -0.01758 c -0.0123,-0.193025 0.0157,-0.385848 0.0801,-0.568359 0.0653,-0.182512 0.16717,-0.351026 0.29883,-0.494141 0.13166,-0.143015 0.29069,-0.25896 0.46875,-0.339844 0.17806,-0.08089 0.37034,-0.12499 0.5664,-0.130859 z m -17.224606,0.0098 c 0.201266,0.0012 0.401246,0.04229 0.585938,0.121093 0.184691,0.0788 0.351476,0.194115 0.490234,0.337891 0.138759,0.143867 0.245572,0.314076 0.316406,0.5 0.07076,0.185924 0.104147,0.383604 0.0957,0.582031 v 0.01953 c 0.01099,0.196532 -0.01865,0.393527 -0.08789,0.578126 -0.06932,0.184598 -0.176459,0.352075 -0.314453,0.49414 -0.138096,0.142074 -0.304253,0.254022 -0.488281,0.330078 -0.183935,0.07596 -0.382568,0.114074 -0.582032,0.111328 -0.199659,-0.0023 -0.396993,-0.04425 -0.580078,-0.123046 -0.182991,-0.0788 -0.348717,-0.19301 -0.486328,-0.335938 -0.13752,-0.142985 -0.244083,-0.311589 -0.314453,-0.496094 -0.07037,-0.184504 -0.101706,-0.381028 -0.09375,-0.578125 v -0.01758 c -0.01203,-0.196247 0.01588,-0.39334 0.08398,-0.578125 0.0681,-0.184789 0.173684,-0.353264 0.310547,-0.496094 0.136957,-0.142732 0.303158,-0.256795 0.486328,-0.333984 0.183179,-0.07729 0.379035,-0.116369 0.578125,-0.115234 z" />
</svg>
